<?xml version="1.0" encoding="UTF-8" standalone="no"?>
<!-- Created with Inkscape (http://www.inkscape.org/) -->

<svg
   width="25.587849mm"
   height="25.587845mm"
   viewBox="0 0 25.587849 25.587845"
   version="1.1"
   id="svg1"
   xmlns:inkscape="http://www.inkscape.org/namespaces/inkscape"
   xmlns:sodipodi="http://sodipodi.sourceforge.net/DTD/sodipodi-0.dtd"
   xmlns="http://www.w3.org/2000/svg"
   xmlns:svg="http://www.w3.org/2000/svg">
  <sodipodi:namedview
     id="namedview1"
     pagecolor="#ffffff"
     bordercolor="#000000"
     borderopacity="0.25"
     inkscape:showpageshadow="2"
     inkscape:pageopacity="0.0"
     inkscape:pagecheckerboard="0"
     inkscape:deskcolor="#d1d1d1"
     inkscape:document-units="mm">
    <inkscape:page
       x="3.513175e-22"
       y="0"
       width="25.587851"
       height="25.587845"
       id="page2"
       margin="0"
       bleed="0" />
  </sodipodi:namedview>
  <defs
     id="defs1" />
  <g
     inkscape:label="Camada 1"
     inkscape:groupmode="layer"
     id="layer1"
     transform="translate(-92.074993,-135.73125)">
    <g
       id="g9"
       inkscape:export-filename="logo_light.svg"
       inkscape:export-xdpi="96"
       inkscape:export-ydpi="96"
       transform="matrix(0.26458333,0,0,0.26458333,77.077094,121.13286)">
      <path
         class="cls-2"
         d="m 134.96,148.93 c -19.95,3.94 -39.89,3.94 -59.84,0 -6.79,-1.45 -14.03,-8.7 -15.48,-15.48 -3.94,-19.95 -3.94,-39.89 0,-59.84 1.45,-6.79 8.7,-14.03 15.48,-15.48 19.95,-3.94 39.89,-3.94 59.84,0 6.79,1.45 14.03,8.7 15.48,15.48 3.94,19.95 3.94,39.89 0,59.84 -1.45,6.79 -8.7,14.04 -15.48,15.48 z"
         id="path6"
         style="fill:#fdc74b" />
      <g
         id="g8">
        <rect
           class="cls-1"
           x="94.169998"
           y="90.220001"
           width="9"
           height="3.0899999"
           id="rect6"
           style="fill:#34b6c6" />
        <path
           class="cls-1"
           d="m 111.44,86.9 c -2.87,0 -5.77,1.98 -5.77,5.77 v 0.64 h 2.98 v -0.64 c 0,-1.93 1.4,-2.79 2.79,-2.79 1.39,0 2.79,0.86 2.79,2.79 v 0.64 h 2.98 v -0.64 c 0,-3.79 -2.9,-5.77 -5.77,-5.77 z"
           id="path7"
           style="fill:#34b6c6" />
        <path
           class="cls-1"
           d="m 122.87,103.55 c 0,0 -1.26,-1.02 -1.53,-1.2 -1.79,-1.2 -3.82,-1.83 -5.96,-1.83 l -20.8,0.02 c 0,0 -0.06,0 -0.12,0 -3.23,-0.35 -5.66,-3.13 -5.66,-6.46 v -4.54 c 0,-3.6 2.83,-6.54 6.32,-6.54 h 19.91 c 3.44,0.1 6.14,2.96 6.14,6.5 v 4.53 c 0,1.92 -0.87,3.71 -2.29,4.95 1.88,0.29 3.91,1.41 5.27,2.78 1.37,-1.92 2.15,-4.22 2.15,-6.61 v -6.78 c 0,-6.19 -4.89,-11.22 -10.91,-11.22 H 94.58 l -0.43,0.02 c -5.83,0.22 -10.51,5.18 -10.51,11.24 v 6.79 c 0,4.63 2.83,8.85 7.03,10.5 0,0 1.27,0.43 1.92,0.55 0.68,0.13 1.33,0.19 1.96,0.19 H 115 c 3.46,0.03 6.27,2.96 6.27,6.53 v 4.54 c 0,3.6 -2.83,6.54 -6.32,6.54 H 95.08 c -3.47,-0.02 -6.29,-2.96 -6.29,-6.56 v -4.56 c 0,-1.9 0.84,-3.68 2.23,-4.92 -1.88,-0.33 -3.89,-1.47 -5.22,-2.84 -1.37,1.93 -2.14,4.23 -2.14,6.63 v 6.81 c 0,6.22 4.89,11.28 10.91,11.28 l 21.24,-0.03 c 5.88,-0.16 10.62,-5.14 10.62,-11.24 v -6.79 c 0,-3.18 -1.29,-6.17 -3.56,-8.3 z"
           id="path8"
           style="fill:#34b6c6" />
      </g>
    </g>
  </g>
</svg>
