<?xml version="1.0" encoding="UTF-8"?>
<svg id="Camada_1" data-name="Camada 1" xmlns="http://www.w3.org/2000/svg" viewBox="0 0 486.33 201.56">
  <defs>
    <style>
      .cls-1 {
        fill: #34b6c6;
      }

      .cls-2 {
        fill: #fdc74b;
      }
    </style>
  </defs>
  <g>
    <path class="cls-1" d="M409.45,126.65c14.28,0,22.81-8.59,22.81-22.98v-2.66c0-14.39-8.53-22.98-22.81-22.98s-22.9,8.59-22.9,22.98v2.66c0,14.39,8.56,22.98,22.9,22.98ZM397.57,99.68c0-8.77,3.67-12.68,11.88-12.68s11.8,3.91,11.8,12.68v5.31c0,8.77-3.64,12.68-11.8,12.68s-11.88-3.91-11.88-12.68v-5.31Z"/>
    <path class="cls-1" d="M234.44,78.63h-9.91c-4.6,0-8.95,1.72-12.17,4.77-3.22-3.05-7.58-4.77-12.17-4.77h-9.91c-9.51,0-17.24,7.34-17.24,16.36v31.06h10.17v-30.27c0-4.49,3.91-8.14,8.71-8.14h6.62c4.8,0,8.71,3.65,8.71,8.14v28.82l.03,1.46h10.17v-30.27c0-4.49,3.91-8.14,8.71-8.14h6.63c4.8,0,8.71,3.65,8.71,8.14v30.27h10.17v-31.06c0-9.02-7.74-16.36-17.24-16.36Z"/>
    <path class="cls-1" d="M289.69,105.98c2.92.89,6.37,1.42,10.09,1.42,11.77,0,20.35-4.87,20.35-13.27v-2.12c0-3.27.97-3.72,4.07-3.72h4.87v-10.09c-.89-.8-2.04-1.33-4.25-1.33-4.51,0-6.55,3.45-5.4,9.82h-.53c-2.66-6.46-9.2-9.2-19.12-9.2-12.12,0-20.35,4.51-20.35,13.63v2.66c0,4.18,1.9,7.35,4.99,9.58-1.2,1.09-3.67,3.55-5.12,6.48-.92,1.35-1.37,2.91-1.37,4.73,0,3.44,1.47,5.81,4.08,7.26-1.21,1.15-3.08,3.16-4.36,5.52-1,1.36-1.58,3.02-1.58,5.1,0,5.4,3.36,9.11,12.83,9.11h22.74c11.24,0,16.11-4.69,16.11-13.72s-4.87-13.89-16.11-13.89h-21.77c-2.3,0-3.45-1.33-3.45-3.19,0-2.04,1.06-3.19,3.27-4.78ZM289.78,91.56c0-3.89,3.27-5.58,10-5.58s10,1.68,10,5.58v1.77c0,3.89-3.19,5.58-10,5.58s-10-1.68-10-5.58v-1.77ZM312.61,123.33c3.45,0,4.87,1.42,4.87,3.8v1.5c0,2.39-1.42,3.81-4.87,3.81h-23.1c-3.27,0-4.69-1.24-4.69-3.72,0-1.32.27-2.35.75-3.28l1.1-1.53c.18-.19.33-.39.54-.59h25.4Z"/>
    <path class="cls-1" d="M345,105.98c2.92.89,6.37,1.42,10.09,1.42,11.77,0,20.36-4.87,20.36-13.27v-2.12c0-3.27.97-3.72,4.07-3.72h4.87v-10.09c-.89-.8-2.04-1.33-4.25-1.33-4.51,0-6.55,3.45-5.4,9.82h-.53c-2.66-6.46-9.2-9.2-19.12-9.2-12.12,0-20.35,4.51-20.35,13.63v2.66c0,3.96,1.7,7.01,4.49,9.22-1.97,1.83-6.36,6.49-5.96,11.12,0,.15-.04.3-.04.45,0,3.2,1.25,5.49,3.53,6.96-2.2,2.16-6.01,6.62-5.39,11,.03,5.36,3.41,9.04,12.83,9.04h22.75c11.24,0,16.11-4.69,16.11-13.72s-4.87-13.89-16.11-13.89h-21.77c-2.3,0-3.45-1.33-3.45-3.19,0-2.04,1.06-3.19,3.28-4.78ZM345.09,91.56c0-3.89,3.28-5.58,10-5.58s10,1.68,10,5.58v1.77c0,3.89-3.19,5.58-10,5.58s-10-1.68-10-5.58v-1.77ZM367.92,123.33c3.45,0,4.87,1.42,4.87,3.8v1.5c0,2.39-1.42,3.81-4.87,3.81h-23.1c-3.28,0-4.69-1.24-4.69-3.72s.8-3.9,2.39-5.4h25.4Z"/>
    <g>
      <rect class="cls-1" x="259.77" y="78.6" width="10.1" height="47.48"/>
      <rect class="cls-2" x="259.74" y="65.5" width="10.16" height="9.87"/>
    </g>
  </g>
  <g>
    <path class="cls-2" d="M134.96,148.93c-19.95,3.94-39.89,3.94-59.84,0-6.79-1.45-14.03-8.7-15.48-15.48-3.94-19.95-3.94-39.89,0-59.84,1.45-6.79,8.7-14.03,15.48-15.48,19.95-3.94,39.89-3.94,59.84,0,6.79,1.45,14.03,8.7,15.48,15.48,3.94,19.95,3.94,39.89,0,59.84-1.45,6.79-8.7,14.04-15.48,15.48Z"/>
    <g>
      <rect class="cls-1" x="94.17" y="90.22" width="9" height="3.09"/>
      <path class="cls-1" d="M111.44,86.9c-2.87,0-5.77,1.98-5.77,5.77v.64h2.98v-.64c0-1.93,1.4-2.79,2.79-2.79s2.79.86,2.79,2.79v.64h2.98v-.64c0-3.79-2.9-5.77-5.77-5.77Z"/>
      <path class="cls-1" d="M122.87,103.55s-1.26-1.02-1.53-1.2c-1.79-1.2-3.82-1.83-5.96-1.83l-20.8.02s-.06,0-.12,0c-3.23-.35-5.66-3.13-5.66-6.46v-4.54c0-3.6,2.83-6.54,6.32-6.54h19.91c3.44.1,6.14,2.96,6.14,6.5v4.53c0,1.92-.87,3.71-2.29,4.95,1.88.29,3.91,1.41,5.27,2.78,1.37-1.92,2.15-4.22,2.15-6.61v-6.78c0-6.19-4.89-11.22-10.91-11.22h-20.81l-.43.02c-5.83.22-10.51,5.18-10.51,11.24v6.79c0,4.63,2.83,8.85,7.03,10.5,0,0,1.27.43,1.92.55.68.13,1.33.19,1.96.19h20.45c3.46.03,6.27,2.96,6.27,6.53v4.54c0,3.6-2.83,6.54-6.32,6.54h-19.87c-3.47-.02-6.29-2.96-6.29-6.56v-4.56c0-1.9.84-3.68,2.23-4.92-1.88-.33-3.89-1.47-5.22-2.84-1.37,1.93-2.14,4.23-2.14,6.63v6.81c0,6.22,4.89,11.28,10.91,11.28l21.24-.03c5.88-.16,10.62-5.14,10.62-11.24v-6.79c0-3.18-1.29-6.17-3.56-8.3Z"/>
    </g>
  </g>
</svg>