<?xml version="1.0" encoding="UTF-8"?>
<svg id="Camada_1" data-name="Camada 1" xmlns="http://www.w3.org/2000/svg" viewBox="0 0 486.33 201.56">
  <defs>
    <style>
      .cls-1 {
        fill: #fff;
      }

      .cls-2 {
        fill: #fdc74b;
      }
    </style>
  </defs>
  <g>
    <path class="cls-1" d="M413.12,125.23c14.79,0,23.62-8.9,23.62-23.8v-2.75c0-14.9-8.83-23.8-23.62-23.8s-23.71,8.9-23.71,23.8v2.75c0,14.9,8.86,23.8,23.71,23.8ZM400.81,97.31c0-9.08,3.8-13.13,12.31-13.13s12.21,4.05,12.21,13.13v5.5c0,9.08-3.77,13.13-12.21,13.13s-12.31-4.05-12.31-13.13v-5.5Z"/>
    <path class="cls-1" d="M231.9,75.5h-10.26c-4.76,0-9.27,1.78-12.6,4.94-3.34-3.16-7.84-4.94-12.6-4.94h-10.26c-9.85,0-17.86,7.6-17.86,16.94v32.16h10.54v-31.35c0-4.65,4.05-8.43,9.02-8.43h6.86c4.97,0,9.02,3.78,9.02,8.43v29.84l.03,1.51h10.54v-31.35c0-4.65,4.05-8.43,9.02-8.43h6.86c4.97,0,9.02,3.78,9.02,8.43v31.35h10.54v-32.16c0-9.34-8.01-16.94-17.86-16.94Z"/>
    <path class="cls-1" d="M289.11,103.83c3.02.92,6.6,1.47,10.45,1.47,12.19,0,21.08-5.04,21.08-13.75v-2.2c0-3.39,1.01-3.85,4.22-3.85h5.04v-10.45c-.92-.82-2.11-1.37-4.4-1.37-4.67,0-6.78,3.57-5.59,10.17h-.55c-2.75-6.69-9.53-9.53-19.79-9.53-12.55,0-21.08,4.67-21.08,14.11v2.75c0,4.33,1.97,7.61,5.17,9.92-1.24,1.13-3.8,3.68-5.31,6.71-.95,1.4-1.42,3.02-1.42,4.9,0,3.56,1.52,6.02,4.23,7.51-1.25,1.19-3.19,3.27-4.52,5.71-1.04,1.41-1.63,3.12-1.63,5.29,0,5.59,3.48,9.44,13.29,9.44h23.55c11.64,0,16.68-4.86,16.68-14.2s-5.04-14.39-16.68-14.39h-22.54c-2.38,0-3.57-1.37-3.57-3.3,0-2.11,1.1-3.3,3.39-4.95ZM289.2,88.89c0-4.03,3.39-5.77,10.35-5.77s10.36,1.74,10.36,5.77v1.83c0,4.03-3.3,5.77-10.36,5.77s-10.35-1.74-10.35-5.77v-1.83ZM312.84,121.79c3.57,0,5.04,1.47,5.04,3.94v1.56c0,2.47-1.47,3.94-5.04,3.94h-23.92c-3.39,0-4.86-1.28-4.86-3.85,0-1.36.28-2.44.78-3.4l1.14-1.59c.19-.2.34-.41.56-.61h26.3Z"/>
    <path class="cls-1" d="M346.38,103.83c3.02.92,6.6,1.47,10.45,1.47,12.19,0,21.08-5.04,21.08-13.75v-2.2c0-3.39,1.01-3.85,4.21-3.85h5.04v-10.45c-.92-.82-2.11-1.37-4.4-1.37-4.67,0-6.78,3.57-5.59,10.17h-.55c-2.75-6.69-9.53-9.53-19.79-9.53-12.55,0-21.08,4.67-21.08,14.11v2.75c0,4.1,1.76,7.26,4.65,9.55-2.04,1.9-6.58,6.72-6.17,11.52,0,.16-.04.31-.04.47,0,3.31,1.3,5.68,3.66,7.2-2.27,2.23-6.23,6.86-5.58,11.39.03,5.55,3.53,9.36,13.28,9.36h23.55c11.64,0,16.68-4.86,16.68-14.2s-5.04-14.39-16.68-14.39h-22.54c-2.38,0-3.57-1.37-3.57-3.3,0-2.11,1.1-3.3,3.39-4.95ZM346.47,88.89c0-4.03,3.39-5.77,10.36-5.77s10.36,1.74,10.36,5.77v1.83c0,4.03-3.3,5.77-10.36,5.77s-10.36-1.74-10.36-5.77v-1.83ZM370.12,121.79c3.57,0,5.04,1.47,5.04,3.94v1.56c0,2.47-1.47,3.94-5.04,3.94h-23.92c-3.39,0-4.86-1.28-4.86-3.85s.82-4.03,2.47-5.59h26.3Z"/>
    <rect class="cls-1" x="258.12" y="75.47" width="10.46" height="49.17"/>
    <rect class="cls-2" x="258.09" y="61.91" width="10.52" height="10.22"/>
  </g>
  <g>
    <path class="cls-2" d="M128.89,148.3c-20.65,4.08-41.31,4.08-61.96,0-7.03-1.5-14.53-9.01-16.03-16.03-4.08-20.65-4.08-41.31,0-61.96,1.5-7.03,9.01-14.53,16.03-16.03,20.65-4.08,41.31-4.08,61.96,0,7.03,1.5,14.53,9,16.03,16.03,4.08,20.65,4.08,41.31,0,61.96-1.5,7.03-9.01,14.53-16.03,16.03Z"/>
    <g>
      <rect class="cls-1" x="86.66" y="87.51" width="9.32" height="3.2"/>
      <path class="cls-1" d="M104.54,84.07c-2.97,0-5.98,2.05-5.98,5.98v.67h3.08v-.67c0-2,1.45-2.89,2.89-2.89s2.89.89,2.89,2.89v.67h3.08v-.67c0-3.93-3.01-5.98-5.98-5.98Z"/>
      <path class="cls-1" d="M116.37,101.31s-1.3-1.06-1.58-1.24c-1.85-1.24-3.95-1.89-6.17-1.89l-21.54.02s-.07,0-.12,0c-3.34-.36-5.86-3.24-5.86-6.69v-4.7c0-3.73,2.94-6.77,6.54-6.77h20.61c3.57.1,6.36,3.06,6.36,6.73v4.69c0,1.99-.9,3.85-2.37,5.13,1.95.3,4.05,1.47,5.46,2.88,1.42-1.99,2.23-4.37,2.23-6.84v-7.02c0-6.41-5.07-11.62-11.29-11.62h-21.55l-.44.02c-6.04.23-10.88,5.36-10.88,11.63v7.03c0,4.8,2.93,9.17,7.28,10.87,0,0,1.32.45,1.99.57.71.13,1.37.2,2.03.2h21.17c3.58.03,6.49,3.06,6.49,6.76v4.7c0,3.73-2.94,6.77-6.54,6.77h-20.58c-3.59-.02-6.51-3.07-6.51-6.79v-4.72c0-1.97.87-3.81,2.3-5.09-1.95-.34-4.03-1.52-5.41-2.94-1.41,2-2.22,4.38-2.22,6.86v7.06c0,6.44,5.07,11.68,11.3,11.68l21.99-.03c6.09-.17,10.99-5.32,10.99-11.64v-7.03c0-3.29-1.33-6.39-3.68-8.6Z"/>
    </g>
  </g>
</svg>